<mxfile host="app.diagrams.net" modified="2024-01-01T23:55:51.018Z" agent="Mozilla/5.0 (Windows NT 10.0; Win64; x64) AppleWebKit/537.36 (KHTML, like Gecko) Chrome/120.0.0.0 Safari/537.36" version="22.1.16" etag="VptcIpN5iH4XX4WZ54Ua" type="github">
  <diagram name="Page-1" id="pelFTIs5Ij8hSwEyG2Q1">
    <mxGraphModel>
      <root>
        <mxCell id="0" />
        <mxCell id="1" parent="0" />
      </root>
    </mxGraphModel>
  </diagram>
</mxfile>
